<svg width="50" height="50" viewBox="0 0 50 50" fill="none" xmlns="http://www.w3.org/2000/svg">
<circle cx="25" cy="25" r="25" fill="#49547D"/>
<path d="M13.3574 35.6429V13.2699C13.3574 12.8447 13.7669 12.5 14.2721 12.5H32.0335C32.276 12.5 32.5086 12.5811 32.6801 12.7255L34.786 14.6429M16.786 38.2143L37.7476 38.1636V17.31L37.3574 16.9571" stroke="white" stroke-width="1.5" stroke-linecap="round" stroke-linejoin="round"/>
<path d="M19.4541 22.7646L26.6431 22.7856M19.4541 17.6318H25.5517M19.4541 27.8973L21.9289 27.9284" stroke="white" stroke-width="1.5" stroke-linecap="round" stroke-linejoin="round"/>
<path d="M26.2139 27.9287H30.9282" stroke="white" stroke-width="1.5" stroke-linecap="round"/>
<path d="M31.3569 22.7861H33.0712" stroke="white" stroke-width="1.5" stroke-linecap="round"/>
<path d="M31.3569 12.5V16.8136C31.3569 17.234 31.7406 17.6429 32.2141 17.6429H32.2998" stroke="white" stroke-width="1.5" stroke-linecap="round" stroke-linejoin="round"/>
<path d="M12.5 39.5L39.5 12.5" stroke="white" stroke-width="1.5" stroke-linecap="round"/>
<path d="M37.3567 17.6426H36.9281H36.4995" stroke="white" stroke-width="1.5" stroke-linecap="round"/>
</svg>
