<svg width="80" height="80" viewBox="0 0 80 80" fill="none" xmlns="http://www.w3.org/2000/svg">
<path d="M40.8759 44.6416C42.8311 44.6416 44.4225 43.0676 44.4225 41.134C44.4225 39.1911 42.8311 37.6099 40.8759 37.6099C38.9152 37.6099 37.3783 39.1584 37.3783 41.134C37.3783 43.0985 38.9152 44.6416 40.8759 44.6416Z" fill="white"/>
<path d="M22.0929 75.6141C23.7691 75.6141 25.1345 74.2664 25.1345 72.6075C25.1345 70.9447 23.7691 69.5891 22.0929 69.5891C20.4128 69.5891 19.0966 70.9135 19.0966 72.6075C19.0966 74.2951 20.4128 75.6141 22.0929 75.6141Z" fill="white"/>
<path d="M3.99563 45.1956C6.22924 45.1956 8.04705 43.3991 8.04705 41.1854C8.04705 38.9682 6.22924 37.1628 3.99563 37.1628C1.75596 37.1628 0 38.9303 0 41.1854C0 43.4335 1.75596 45.1956 3.99563 45.1956Z" fill="white"/>
<path d="M9.0962 62.7998C11.0514 62.7998 12.6429 61.2255 12.6429 59.2903C12.6429 57.3493 11.0514 55.7681 9.0962 55.7681C7.13554 55.7681 5.59863 57.3169 5.59863 59.2903C5.59863 61.2583 7.13554 62.7998 9.0962 62.7998Z" fill="white"/>
<path d="M22.075 15.2536C25.1472 15.2536 27.6474 12.7815 27.6474 9.73822C27.6474 6.69153 25.1472 4.2063 22.075 4.2063C18.9951 4.2063 16.5804 6.63722 16.5804 9.73822C16.5804 12.8303 18.9951 15.2536 22.075 15.2536Z" fill="white"/>
<path d="M8.51458 27.445C11.0294 27.445 13.0752 25.4206 13.0752 22.9324C13.0752 20.4383 11.0294 18.405 8.51458 18.405C5.99272 18.405 4.01898 20.3967 4.01898 22.9324C4.01898 25.4639 5.99272 27.445 8.51458 27.445Z" fill="white"/>
<path d="M34.9738 54.8245C36.65 54.8245 38.0135 53.4762 38.0135 51.8173C38.0135 50.1545 36.65 48.7996 34.9738 48.7996C33.2937 48.7996 31.9778 50.124 31.9778 51.8173C31.9778 53.5033 33.2937 54.8245 34.9738 54.8245Z" fill="white"/>
<path d="M28.8248 44.6416C30.7801 44.6416 32.3696 43.0676 32.3696 41.1318C32.3696 39.1911 30.7801 37.6099 28.8248 37.6099C26.8642 37.6099 25.3273 39.1584 25.3273 41.1318C25.3273 43.0985 26.8642 44.6416 28.8248 44.6416Z" fill="white"/>
<path d="M34.6874 34.3928C36.9197 34.3928 38.7388 32.5945 38.7388 30.3826C38.7388 28.1652 36.9197 26.3582 34.6874 26.3582C32.4458 26.3582 30.6902 28.1253 30.6902 30.3826C30.6902 32.6307 32.4458 34.3928 34.6874 34.3928Z" fill="white"/>
<path d="M34.4704 66.9227C35.8663 66.9227 37.0034 65.7988 37.0034 64.4161C37.0034 63.0319 35.8663 61.9026 34.4704 61.9026C33.0728 61.9026 31.9737 63.0067 31.9737 64.4161C31.9737 65.8224 33.0728 66.9227 34.4704 66.9227Z" fill="white"/>
<path d="M24.1377 61.099C25.8139 61.099 27.1774 59.7491 27.1774 58.0901C27.1774 56.4274 25.8139 55.0718 24.1377 55.0718C22.4557 55.0718 21.1401 56.3984 21.1401 58.0901C21.1401 59.7777 22.4557 61.099 24.1377 61.099Z" fill="white"/>
<path d="M17.5982 50.7761C19.5535 50.7761 21.1449 49.2044 21.1449 47.2669C21.1449 45.3257 19.5535 43.7444 17.5982 43.7444C15.6375 43.7444 14.1006 45.2935 14.1006 47.2669C14.1006 49.2349 15.6375 50.7761 17.5982 50.7761Z" fill="white"/>
<path d="M17.5947 38.761C19.829 38.761 21.6465 36.9646 21.6465 34.7512C21.6465 32.5336 19.829 30.7283 17.5947 30.7283C15.3551 30.7283 13.5991 32.4954 13.5991 34.7512C13.5991 37.0009 15.3551 38.761 17.5947 38.761Z" fill="white"/>
<path d="M23.3977 28.689C25.9103 28.689 27.9561 26.6668 27.9561 24.1786C27.9561 21.6828 25.9103 19.6516 23.3977 19.6516C20.8736 19.6516 18.9021 21.6428 18.9021 24.1786C18.9021 26.7084 20.8736 28.689 23.3977 28.689Z" fill="white"/>
<path d="M34.5178 22.5861C37.0323 22.5861 39.0781 20.5622 39.0781 18.0736C39.0781 15.5795 37.0323 13.5466 34.5178 13.5466C31.9956 13.5466 30.0225 15.5379 30.0225 18.0736C30.0225 20.6038 31.9956 22.5861 34.5178 22.5861Z" fill="white"/>
<path d="M72.9628 26.4411C74.9177 26.4411 76.5072 24.867 76.5072 22.9314C76.5072 20.9885 74.9177 19.4089 72.9628 19.4089C70.9999 19.4089 69.4646 20.958 69.4646 22.9314C69.4646 24.8976 70.9999 26.4411 72.9628 26.4411Z" fill="white"/>
<path d="M58.7888 13.7459C61.0227 13.7459 62.8405 11.9478 62.8405 9.73588C62.8405 7.51847 61.0227 5.71143 58.7888 5.71143C56.5475 5.71143 54.7913 7.48027 54.7913 9.73588C54.7913 11.9839 56.5475 13.7459 58.7888 13.7459Z" fill="white"/>
<path d="M40.8685 9.03951C43.3811 9.03951 45.4285 7.01728 45.4285 4.52696C45.4285 2.03326 43.3811 0 40.8685 0C38.3467 0 36.3729 1.99167 36.3729 4.52696C36.3729 7.05719 38.3467 9.03951 40.8685 9.03951Z" fill="white"/>
<path d="M72.1917 61.8686C73.588 61.8686 74.7225 60.7444 74.7225 59.362C74.7225 57.9778 73.588 56.8481 72.1917 56.8481C70.7925 56.8481 69.6934 57.9539 69.6934 59.362C69.6934 60.7698 70.7925 61.8686 72.1917 61.8686Z" fill="white"/>
<path d="M76.9584 44.1915C78.635 44.1915 80 42.8432 80 41.1842C80 39.5196 78.635 38.1665 76.9584 38.1665C75.2783 38.1665 73.9621 39.4909 73.9621 41.1842C73.9621 42.8702 75.2783 44.1915 76.9584 44.1915Z" fill="white"/>
<path d="M40.8827 80C39.4836 80 38.3848 78.9013 38.3848 77.4935C38.3848 76.0841 39.4836 74.978 40.8827 74.978C42.2787 74.978 43.4138 76.1092 43.4138 77.4935C43.4138 78.8777 42.2787 80 40.8827 80Z" fill="white"/>
<path d="M58.8012 74.4641C59.9178 74.4641 60.8269 73.5639 60.8269 72.4601C60.8269 71.3486 59.9178 70.4453 58.8012 70.4453C57.682 70.4453 56.8026 71.3305 56.8026 72.4601C56.8026 73.584 57.682 74.4641 58.8012 74.4641Z" fill="white"/>
<path d="M47.1731 33.9962C49.1284 33.9962 50.7198 32.4238 50.7198 30.4885C50.7198 28.5456 49.1284 26.9644 47.1731 26.9644C45.2128 26.9644 43.6771 28.5151 43.6771 30.4885C43.6771 32.4547 45.2128 33.9962 47.1731 33.9962Z" fill="white"/>
<path d="M53.3204 44.1388C54.9967 44.1388 56.3601 42.7905 56.3601 41.1316C56.3601 39.4669 54.9967 38.1135 53.3204 38.1135C51.6385 38.1135 50.3222 39.4383 50.3222 41.1316C50.3222 42.8176 51.6385 44.1388 53.3204 44.1388Z" fill="white"/>
<path d="M47.1805 54.2073C48.5761 54.2073 49.7129 53.0834 49.7129 51.7008C49.7129 50.3146 48.5761 49.1853 47.1805 49.1853C45.781 49.1853 44.6819 50.2914 44.6819 51.7008C44.6819 53.1067 45.781 54.2073 47.1805 54.2073Z" fill="white"/>
<path d="M47.2049 22.0831C49.4385 22.0831 51.2566 20.2867 51.2566 18.0731C51.2566 15.8556 49.4385 14.0503 47.2049 14.0503C44.9636 14.0503 43.2073 15.8174 43.2073 18.0731C43.2073 20.3228 44.9636 22.0831 47.2049 22.0831Z" fill="white"/>
<path d="M58.5924 27.6254C60.5461 27.6254 62.1375 26.0513 62.1375 24.1157C62.1375 22.175 60.5461 20.5933 58.5924 20.5933C56.6317 20.5933 55.0948 22.144 55.0948 24.1157C55.0948 26.0819 56.6317 27.6254 58.5924 27.6254Z" fill="white"/>
<path d="M64.0554 37.697C65.732 37.697 67.0954 36.3487 67.0954 34.6879C67.0954 33.0251 65.732 31.6697 64.0554 31.6697C62.3737 31.6697 61.0591 32.9965 61.0591 34.6879C61.0591 36.3758 62.3737 37.697 64.0554 37.697Z" fill="white"/>
<path d="M63.9352 49.7721C65.3315 49.7721 66.4682 48.6479 66.4682 47.2656C66.4682 45.8813 65.3315 44.7517 63.9352 44.7517C62.5376 44.7517 61.4388 45.8559 61.4388 47.2656C61.4388 48.6718 62.5376 49.7721 63.9352 49.7721Z" fill="white"/>
<path d="M57.742 60.0926C58.8589 60.0926 59.7696 59.1947 59.7696 58.0886C59.7696 56.9788 58.8589 56.0754 57.742 56.0754C56.6215 56.0754 55.7433 56.9628 55.7433 58.0886C55.7433 59.2125 56.6215 60.0926 57.742 60.0926Z" fill="white"/>
<path d="M47.2189 66.4217C48.3362 66.4217 49.245 65.5216 49.245 64.4155C49.245 63.3057 48.3362 62.4023 47.2189 62.4023C46.0988 62.4023 45.2203 63.2878 45.2203 64.4155C45.2203 65.5397 46.0988 66.4217 47.2189 66.4217Z" fill="white"/>
</svg>
