<svg width="24" height="24" viewBox="0 0 24 24" fill="none" xmlns="http://www.w3.org/2000/svg">
<path d="M12.2628 13.3925C12.8493 13.3925 13.3268 12.9203 13.3268 12.3402C13.3268 11.7573 12.8493 11.283 12.2628 11.283C11.6746 11.283 11.2135 11.7475 11.2135 12.3402C11.2135 12.9295 11.6746 13.3925 12.2628 13.3925Z" fill="white"/>
<path d="M6.62784 22.6842C7.13071 22.6842 7.54032 22.2799 7.54032 21.7822C7.54032 21.2834 7.13071 20.8767 6.62784 20.8767C6.12382 20.8767 5.72894 21.274 5.72894 21.7822C5.72894 22.2885 6.12382 22.6842 6.62784 22.6842Z" fill="white"/>
<path d="M1.19869 13.5587C1.86877 13.5587 2.41412 13.0198 2.41412 12.3557C2.41412 11.6905 1.86877 11.1489 1.19869 11.1489C0.526788 11.1489 0 11.6792 0 12.3557C0 13.0301 0.526788 13.5587 1.19869 13.5587Z" fill="white"/>
<path d="M2.72884 18.84C3.31541 18.84 3.79284 18.3677 3.79284 17.7871C3.79284 17.2049 3.31541 16.7305 2.72884 16.7305C2.14064 16.7305 1.67957 17.1951 1.67957 17.7871C1.67957 18.3775 2.14064 18.84 2.72884 18.84Z" fill="white"/>
<path d="M6.6225 4.57615C7.54416 4.57615 8.29421 3.83453 8.29421 2.92154C8.29421 2.00753 7.54416 1.26196 6.6225 1.26196C5.69854 1.26196 4.97412 1.99124 4.97412 2.92154C4.97412 3.84917 5.69854 4.57615 6.6225 4.57615Z" fill="white"/>
<path d="M2.55437 8.23347C3.30882 8.23347 3.92256 7.62617 3.92256 6.8797C3.92256 6.13146 3.30882 5.52148 2.55437 5.52148C1.79781 5.52148 1.20569 6.11899 1.20569 6.8797C1.20569 7.63915 1.79781 8.23347 2.55437 8.23347Z" fill="white"/>
<path d="M10.4921 16.4474C10.995 16.4474 11.404 16.0429 11.404 15.5452C11.404 15.0464 10.995 14.6399 10.4921 14.6399C9.9881 14.6399 9.59332 15.0372 9.59332 15.5452C9.59332 16.051 9.9881 16.4474 10.4921 16.4474Z" fill="white"/>
<path d="M8.64748 13.3925C9.23405 13.3925 9.7109 12.9203 9.7109 12.3395C9.7109 11.7573 9.23405 11.283 8.64748 11.283C8.05928 11.283 7.59821 11.7475 7.59821 12.3395C7.59821 12.9295 8.05928 13.3925 8.64748 13.3925Z" fill="white"/>
<path d="M10.4062 10.3179C11.0759 10.3179 11.6216 9.77836 11.6216 9.11482C11.6216 8.44958 11.0759 7.90747 10.4062 7.90747C9.73372 7.90747 9.20703 8.43762 9.20703 9.11482C9.20703 9.78925 9.73372 10.3179 10.4062 10.3179Z" fill="white"/>
<path d="M10.3411 20.0768C10.7599 20.0768 11.101 19.7397 11.101 19.3249C11.101 18.9096 10.7599 18.5708 10.3411 18.5708C9.92183 18.5708 9.5921 18.902 9.5921 19.3249C9.5921 19.7467 9.92183 20.0768 10.3411 20.0768Z" fill="white"/>
<path d="M7.24132 18.3296C7.74419 18.3296 8.15323 17.9247 8.15323 17.427C8.15323 16.9282 7.74419 16.5215 7.24132 16.5215C6.73673 16.5215 6.34204 16.9195 6.34204 17.427C6.34204 17.9333 6.73673 18.3296 7.24132 18.3296Z" fill="white"/>
<path d="M5.27949 15.2328C5.86607 15.2328 6.3435 14.7613 6.3435 14.1801C6.3435 13.5977 5.86607 13.1233 5.27949 13.1233C4.69129 13.1233 4.23022 13.588 4.23022 14.1801C4.23022 14.7705 4.69129 15.2328 5.27949 15.2328Z" fill="white"/>
<path d="M5.2784 11.6283C5.94867 11.6283 6.49392 11.0894 6.49392 10.4254C6.49392 9.76011 5.94867 9.21851 5.2784 9.21851C4.6065 9.21851 4.07971 9.74865 4.07971 10.4254C4.07971 11.1003 4.6065 11.6283 5.2784 11.6283Z" fill="white"/>
<path d="M7.01933 8.60673C7.77312 8.60673 8.38686 8.00006 8.38686 7.2536C8.38686 6.50485 7.77312 5.89551 7.01933 5.89551C6.26211 5.89551 5.67065 6.49288 5.67065 7.2536C5.67065 8.01254 6.26211 8.60673 7.01933 8.60673Z" fill="white"/>
<path d="M10.3554 6.77581C11.1097 6.77581 11.7235 6.16865 11.7235 5.42206C11.7235 4.67382 11.1097 4.06396 10.3554 4.06396C9.5987 4.06396 9.00677 4.66134 9.00677 5.42206C9.00677 6.18112 9.5987 6.77581 10.3554 6.77581Z" fill="white"/>
<path d="M21.8888 7.9324C22.4753 7.9324 22.9521 7.46018 22.9521 6.87949C22.9521 6.29663 22.4753 5.82275 21.8888 5.82275C21.2999 5.82275 20.8394 6.28746 20.8394 6.87949C20.8394 7.46934 21.2999 7.9324 21.8888 7.9324Z" fill="white"/>
<path d="M17.6366 4.12374C18.3068 4.12374 18.8522 3.5843 18.8522 2.92072C18.8522 2.25549 18.3068 1.71338 17.6366 1.71338C16.9643 1.71338 16.4374 2.24403 16.4374 2.92072C16.4374 3.59512 16.9643 4.12374 17.6366 4.12374Z" fill="white"/>
<path d="M12.2605 2.71185C13.0143 2.71185 13.6285 2.10518 13.6285 1.35809C13.6285 0.609977 13.0143 0 12.2605 0C11.504 0 10.9119 0.5975 10.9119 1.35809C10.9119 2.11716 11.504 2.71185 12.2605 2.71185Z" fill="white"/>
<path d="M21.6575 18.5606C22.0764 18.5606 22.4167 18.2233 22.4167 17.8086C22.4167 17.3933 22.0764 17.0544 21.6575 17.0544C21.2378 17.0544 20.908 17.3862 20.908 17.8086C20.908 18.2309 21.2378 18.5606 21.6575 18.5606Z" fill="white"/>
<path d="M23.0875 13.2574C23.5905 13.2574 24 12.853 24 12.3553C24 11.8559 23.5905 11.45 23.0875 11.45C22.5835 11.45 22.1886 11.8473 22.1886 12.3553C22.1886 12.8611 22.5835 13.2574 23.0875 13.2574Z" fill="white"/>
<path d="M12.2648 24C11.8451 24 11.5154 23.6704 11.5154 23.248C11.5154 22.8252 11.8451 22.4934 12.2648 22.4934C12.6836 22.4934 13.0242 22.8328 13.0242 23.248C13.0242 23.6633 12.6836 24 12.2648 24Z" fill="white"/>
<path d="M17.6404 22.3392C17.9753 22.3392 18.2481 22.0691 18.2481 21.738C18.2481 21.4045 17.9753 21.1335 17.6404 21.1335C17.3046 21.1335 17.0408 21.3991 17.0408 21.738C17.0408 22.0751 17.3046 22.3392 17.6404 22.3392Z" fill="white"/>
<path d="M14.1519 10.1989C14.7385 10.1989 15.2159 9.7272 15.2159 9.14659C15.2159 8.56374 14.7385 8.08936 14.1519 8.08936C13.5638 8.08936 13.1031 8.55457 13.1031 9.14659C13.1031 9.73646 13.5638 10.1989 14.1519 10.1989Z" fill="white"/>
<path d="M15.9961 13.2417C16.499 13.2417 16.9081 12.8372 16.9081 12.3395C16.9081 11.8401 16.499 11.4341 15.9961 11.4341C15.4916 11.4341 15.0967 11.8315 15.0967 12.3395C15.0967 12.8453 15.4916 13.2417 15.9961 13.2417Z" fill="white"/>
<path d="M14.1541 16.2622C14.5728 16.2622 14.9138 15.9251 14.9138 15.5103C14.9138 15.0944 14.5728 14.7556 14.1541 14.7556C13.7343 14.7556 13.4045 15.0874 13.4045 15.5103C13.4045 15.932 13.7343 16.2622 14.1541 16.2622Z" fill="white"/>
<path d="M14.1615 6.62494C14.8316 6.62494 15.377 6.08601 15.377 5.42192C15.377 4.75668 14.8316 4.21509 14.1615 4.21509C13.4891 4.21509 12.9622 4.74523 12.9622 5.42192C12.9622 6.09683 13.4891 6.62494 14.1615 6.62494Z" fill="white"/>
<path d="M17.5777 8.28763C18.1638 8.28763 18.6412 7.8154 18.6412 7.23471C18.6412 6.65249 18.1638 6.17798 17.5777 6.17798C16.9895 6.17798 16.5284 6.64319 16.5284 7.23471C16.5284 7.82457 16.9895 8.28763 17.5777 8.28763Z" fill="white"/>
<path d="M19.2166 11.3092C19.7196 11.3092 20.1286 10.9047 20.1286 10.4064C20.1286 9.90761 19.7196 9.50098 19.2166 9.50098C18.7121 9.50098 18.3177 9.89902 18.3177 10.4064C18.3177 10.9128 18.7121 11.3092 19.2166 11.3092Z" fill="white"/>
<path d="M19.1805 14.9317C19.5994 14.9317 19.9405 14.5944 19.9405 14.1797C19.9405 13.7644 19.5994 13.4255 19.1805 13.4255C18.7613 13.4255 18.4316 13.7568 18.4316 14.1797C18.4316 14.6016 18.7613 14.9317 19.1805 14.9317Z" fill="white"/>
<path d="M17.3226 18.0279C17.6577 18.0279 17.9309 17.7585 17.9309 17.4267C17.9309 17.0937 17.6577 16.8228 17.3226 16.8228C16.9865 16.8228 16.723 17.089 16.723 17.4267C16.723 17.7639 16.9865 18.0279 17.3226 18.0279Z" fill="white"/>
<path d="M14.1657 19.9265C14.5009 19.9265 14.7735 19.6565 14.7735 19.3247C14.7735 18.9917 14.5009 18.7207 14.1657 18.7207C13.8296 18.7207 13.5661 18.9863 13.5661 19.3247C13.5661 19.6619 13.8296 19.9265 14.1657 19.9265Z" fill="white"/>
</svg>
