<svg width="50" height="50" viewBox="0 0 50 50" fill="none" xmlns="http://www.w3.org/2000/svg">
<circle cx="25" cy="25" r="25" fill="#49547D"/>
<path d="M38.0542 37.203C38.0542 35.4028 38.0153 17.0511 38.0153 17.0511C38.0153 16.8367 37.9177 16.6311 37.744 16.4794L32.8811 12.2368C32.7074 12.0852 32.4717 12 32.226 12H14.2309C13.7191 12 13.3042 12.362 13.3042 12.8085V38.1415C13.3042 38.5881 13.7191 38.95 14.2309 38.95H24.1153" stroke="white" stroke-width="1.5" stroke-linecap="round" stroke-linejoin="round"/>
<path d="M19.481 21.9011H26.3304M19.481 17.3892H25.6587M19.481 28.1692H21.1198" stroke="white" stroke-width="1.5" stroke-linecap="round" stroke-linejoin="round"/>
<path d="M32.4097 21.9014H34.5807" stroke="white" stroke-width="1.5" stroke-linecap="round"/>
<path d="M28.9355 28.2021H33.2777" stroke="white" stroke-width="1.5" stroke-linecap="round"/>
<path d="M21.9888 25.0519L24.9791 30.0025L31.5414 19.2012" stroke="white" stroke-width="1.5" stroke-linecap="round" stroke-linejoin="round"/>
<path d="M31.8379 12V16.5815C31.8379 17.028 32.2527 17.39 32.7646 17.39H38.0157" stroke="white" stroke-width="1.5" stroke-linecap="round" stroke-linejoin="round"/>
</svg>
