<svg width="60" height="60" viewBox="0 0 60 60" fill="none" xmlns="http://www.w3.org/2000/svg">
<path d="M16 26L44 26" stroke="#49547D" stroke-width="1.5" stroke-linecap="round" stroke-linejoin="round"/>
<path d="M21.6665 32.647H23.3332" stroke="#49547D" stroke-width="1.5" stroke-linecap="round" stroke-linejoin="round"/>
<path d="M36.6665 32.647H38.3332" stroke="#49547D" stroke-width="1.5" stroke-linecap="round" stroke-linejoin="round"/>
<path d="M15 39.7059V28.0774C15 27.5995 15.0917 27.1264 15.2695 26.6871L19.1342 17.1391C19.6594 15.8414 20.8646 15 22.198 15H37.802C39.1355 15 40.3405 15.8414 40.8658 17.1391L44.7305 26.6871C44.9083 27.1264 45 27.5995 45 28.0774V39.7059M15 39.7059V43.9412C15 44.526 15.4477 45 16 45H20.6667C21.219 45 21.6667 44.526 21.6667 43.9412V39.7059M15 39.7059H21.6667M45 39.7059V43.9412C45 44.526 44.5523 45 44 45H39.3333C38.781 45 38.3333 44.526 38.3333 43.9412V39.7059M45 39.7059H38.3333M21.6667 39.7059H38.3333" stroke="#49547D" stroke-width="1.5"/>
</svg>
