<svg width="51" height="50" viewBox="0 0 51 50" fill="none" xmlns="http://www.w3.org/2000/svg">
<circle cx="25.9434" cy="25" r="25" fill="#49547D"/>
<path d="M37.2137 24.0388V15.8876C37.2137 15.6801 37.1217 15.4812 36.958 15.3344L32.3765 11.2291C32.2128 11.0824 31.9908 11 31.7593 11H14.8052C14.323 11 13.9321 11.3503 13.9321 11.7823V36.2952C13.9321 36.7273 14.323 37.0776 14.8052 37.0776H24.1178" stroke="white" stroke-width="2" stroke-linecap="round" stroke-linejoin="round"/>
<path d="M19.752 21.4299H31.3927M19.752 16.2144H25.5723M19.752 26.6454H24.1172" stroke="white" stroke-width="2" stroke-linecap="round" stroke-linejoin="round"/>
<path d="M34.9981 29.0169L37.0344 27.2557C37.926 26.4844 39.3718 26.4844 40.2635 27.2557C41.1551 28.0269 41.1551 29.2773 40.2635 30.0486L38.2272 31.8098M34.9981 29.0169L28.9075 34.2848C28.6023 34.5488 28.4019 34.8899 28.3355 35.2587L27.8413 37.9998L31.0103 37.5726C31.4369 37.515 31.8311 37.3417 32.1364 37.0777L38.2272 31.8098M34.9981 29.0169L38.2272 31.8098" stroke="white" stroke-width="2" stroke-linecap="round" stroke-linejoin="round"/>
<path d="M31.3936 11V15.4332C31.3936 15.8652 31.7844 16.2155 32.2666 16.2155H37.2139" stroke="white" stroke-width="2" stroke-linecap="round" stroke-linejoin="round"/>
</svg>
