<svg width="25" height="25" viewBox="0 0 31 31" fill="none" xmlns="http://www.w3.org/2000/svg">
<path d="M13.6163 4.26854e-07C13.4566 8.50361e-05 13.302 0.0569031 13.1803 0.160323C13.0585 0.263743 12.9775 0.407042 12.9516 0.564666L12.296 4.57787C11.5077 4.80716 10.7561 5.11653 10.0477 5.50187L6.73575 3.13659C6.60609 3.04401 6.44781 3.00035 6.28901 3.01336C6.1302 3.02637 5.98115 3.09521 5.86828 3.20767L3.24612 5.82698C3.13406 5.9391 3.06511 6.08713 3.05139 6.24505C3.03767 6.40296 3.08005 6.56066 3.17108 6.69043L5.50102 10.0231C5.10971 10.7356 4.79345 11.4914 4.55851 12.2871L0.562082 12.9518C0.404926 12.9782 0.262233 13.0595 0.159333 13.1812C0.0564328 13.3029 -1.80602e-05 13.4571 1.11065e-06 13.6165V17.323C-0.000286345 17.4814 0.0552335 17.6348 0.156816 17.7564C0.258398 17.8779 0.399551 17.9598 0.5555 17.9877L4.55457 18.6958C4.78823 19.4901 5.10247 20.2464 5.49444 20.9597L3.13554 24.2596C3.04295 24.3892 2.99928 24.5475 3.0123 24.7063C3.02531 24.8651 3.09416 25.0141 3.20662 25.127L5.82748 27.7489C5.93936 27.8608 6.08707 27.9298 6.2447 27.9437C6.40234 27.9577 6.55987 27.9157 6.68968 27.8252L10.0293 25.4876C10.7397 25.8752 11.4932 26.1869 12.2842 26.4182L12.9516 30.4367C12.9777 30.594 13.0589 30.737 13.1806 30.8402C13.3024 30.9433 13.4567 31 13.6163 31H17.3231C17.4817 31.0002 17.6354 30.9445 17.7569 30.8427C17.8785 30.7409 17.9603 30.5994 17.9879 30.4432L18.7027 26.409C19.4903 26.1741 20.2403 25.8578 20.947 25.4679L24.309 27.8266C24.4388 27.9176 24.5965 27.96 24.7544 27.9462C24.9124 27.9325 25.0604 27.8636 25.1725 27.7515L27.7934 25.1283C27.9063 25.0151 27.9754 24.8654 27.9881 24.7061C28.0009 24.5467 27.9566 24.388 27.8631 24.2582L25.4661 20.9308C25.8493 20.2275 26.1581 19.4821 26.3875 18.6998L30.4432 17.989C30.5994 17.9614 30.7408 17.8797 30.8427 17.7581C30.9445 17.6365 31.0002 17.4829 31 17.3243V13.6178C30.9999 13.458 30.9431 13.3035 30.8397 13.1818C30.7362 13.06 30.5929 12.979 30.4353 12.9531L26.3862 12.291C26.1553 11.5096 25.8456 10.7656 25.4621 10.0626L27.8263 6.69438C27.9173 6.56461 27.9597 6.40691 27.946 6.24899C27.9323 6.09108 27.8633 5.94305 27.7513 5.83093L25.1291 3.2103C25.0159 3.09736 24.8662 3.02834 24.7069 3.01556C24.5475 3.00278 24.3887 3.04708 24.259 3.14054L20.9405 5.52688C20.2334 5.13846 19.483 4.82386 18.6935 4.59103L17.9879 0.558085C17.9606 0.401666 17.8789 0.25991 17.7573 0.15781C17.6357 0.0557094 17.4819 -0.000178197 17.3231 4.26854e-07H13.6163ZM14.1902 1.34783H16.7571L17.4285 5.17939C17.4508 5.3079 17.5099 5.42717 17.5987 5.52272C17.6875 5.61828 17.8021 5.68602 17.9287 5.71773C18.9144 5.96334 19.8401 6.35267 20.6851 6.86417C20.7981 6.93262 20.9287 6.96636 21.0607 6.96122C21.1926 6.95607 21.3202 6.91225 21.4275 6.83522L24.5815 4.56866L26.3967 6.38375L24.151 9.58352C24.076 9.69026 24.0336 9.81647 24.029 9.94685C24.0243 10.0772 24.0575 10.2061 24.1247 10.318C24.6312 11.161 25.0153 12.0808 25.2607 13.061C25.2927 13.1887 25.3613 13.3042 25.4581 13.3933C25.555 13.4824 25.6758 13.5412 25.8057 13.5625L29.6521 14.1917V16.7583L25.7978 17.4349C25.6692 17.4576 25.5499 17.5173 25.4546 17.6065C25.3592 17.6958 25.2919 17.8108 25.2607 17.9377C25.0182 18.9166 24.6338 19.8364 24.1273 20.6794C24.0594 20.7923 24.026 20.9227 24.0314 21.0544C24.0368 21.1862 24.0807 21.3134 24.1576 21.4204L26.4349 24.5807L24.6197 26.3971L21.4249 24.1556C21.3176 24.0804 21.1907 24.0382 21.0598 24.034C20.9289 24.0298 20.7996 24.0638 20.6877 24.1319C19.8469 24.6434 18.9202 25.0345 17.9379 25.2836C17.8119 25.3153 17.6979 25.3828 17.6094 25.4778C17.5208 25.5728 17.4617 25.6914 17.439 25.8193L16.7584 29.6522H14.1876L13.5531 25.8364C13.5315 25.7066 13.4724 25.586 13.383 25.4894C13.2937 25.3928 13.178 25.3244 13.0503 25.2928C12.064 25.0497 11.1341 24.661 10.2833 24.1503C10.1716 24.0834 10.0429 24.0503 9.91282 24.055C9.7827 24.0597 9.65672 24.1019 9.55011 24.1766L6.38034 26.3971L4.56378 24.5781L6.8042 21.4468C6.88077 21.3395 6.9242 21.2121 6.92911 21.0804C6.93403 20.9487 6.90021 20.8184 6.83185 20.7057C6.31557 19.8527 5.92512 18.9229 5.67873 17.9324C5.6472 17.8062 5.57985 17.6919 5.48479 17.6031C5.38972 17.5144 5.27101 17.455 5.14297 17.4322L1.34794 16.7583V14.1877L5.14034 13.5572C5.26998 13.5357 5.39051 13.4768 5.4871 13.3877C5.58369 13.2986 5.65213 13.1832 5.68399 13.0557C5.9325 12.0618 6.32277 11.1322 6.83711 10.2811C6.90494 10.1694 6.93881 10.0404 6.9346 9.90971C6.9304 9.77908 6.88829 9.65248 6.81342 9.54535L4.59932 6.38111L6.4172 4.56471L9.55932 6.81021C9.66622 6.88642 9.79305 6.92976 9.92423 6.93491C10.0554 6.94005 10.1853 6.90678 10.2978 6.83917C11.1441 6.33094 12.0761 5.94532 13.0634 5.70325C13.1918 5.67166 13.308 5.60303 13.3976 5.50591C13.4873 5.40879 13.5464 5.28746 13.5676 5.15701L14.1902 1.34783ZM15.5 10.1087C12.5302 10.1087 10.1082 12.5304 10.1082 15.5C10.1082 18.4696 12.5302 20.8913 15.5 20.8913C18.4698 20.8913 20.8918 18.4696 20.8918 15.5C20.8918 12.5304 18.4698 10.1087 15.5 10.1087ZM15.5 11.4565C17.7413 11.4565 19.5438 13.2589 19.5438 15.5C19.5438 17.7411 17.7413 19.5435 15.5 19.5435C13.2587 19.5435 11.4562 17.7411 11.4562 15.5C11.4562 13.2589 13.2587 11.4565 15.5 11.4565Z" fill="black"/>
</svg>
